<svg height="512" width="512" xmlns="http://www.w3.org/2000/svg"><path d="M481.08 438.5H30.92A30.92 30.92 0 010 407.58V137.1h512v270.48a30.92 30.92 0 01-30.92 30.92z" fill="#a9dbf5"/><path d="M481.1 137.1v301.4a30.92 30.92 0 0030.9-30.93V137.1z" fill="#88c3e0"/><g fill="#43809f"><path d="M103.87 233.97a7.5 7.5 0 00-10.6 0L46.82 280.4a7.5 7.5 0 000 10.6l45.82 45.82a7.48 7.48 0 0010.6 0 7.5 7.5 0 000-10.6l-40.5-40.52 41.12-41.13a7.5 7.5 0 000-10.6zM264.52 280.4l-46.43-46.43a7.5 7.5 0 00-10.6 10.6l41.12 41.13-40.51 40.51a7.5 7.5 0 0010.6 10.61L264.52 291a7.5 7.5 0 000-10.6zM185.81 206.06a7.5 7.5 0 00-9.67 4.35l-54.9 144.64a7.5 7.5 0 1014.02 5.32l54.9-144.63a7.5 7.5 0 00-4.35-9.68z"/></g><path d="M386.32 234.23H337.9a15.45 15.45 0 110-30.9h48.42a15.45 15.45 0 110 30.9z" fill="#29cef6"/><path d="M465.64 296.04H337.9a15.45 15.45 0 110-30.9h127.74a15.45 15.45 0 010 30.9z" fill="#ffc328"/><path d="M427.7 357.85h-89.8a15.45 15.45 0 110-30.9h89.8a15.45 15.45 0 110 30.9z" fill="#f78e36"/><path d="M512 147.74H0v-43.32A30.92 30.92 0 0130.92 73.5h450.16A30.92 30.92 0 01512 104.42z" fill="#43809f"/><path d="M481.1 73.5v74.24H512v-43.3a30.92 30.92 0 00-30.9-30.94z" fill="#3a7190"/><circle cx="49.45" cy="111.13" fill="#29cef6" r="15.45"/><circle cx="109.37" cy="111.13" fill="#f3f3f3" r="15.45"/><circle cx="169.28" cy="111.13" fill="#f78e36" r="15.45"/></svg>