<svg xmlns="http://www.w3.org/2000/svg" viewBox="0 0 512 512"><path d="M512 256a256 256 0 11-512 0 256 256 0 01512 0z" fill="#f2f2f2"/><g fill="#222123"><path d="M512 256l-2 29v3a261 261 0 01-3 19c-18 90-84 163-170 192-13 2-18-6-18-12l1-71c0-24-8-39-18-47 45-5 91-19 109-72a90 90 0 005-16c2-11 3-24 3-38 0-28-10-51-26-69 3-7 11-33-3-68 0 0-21-7-70 26a246 246 0 00-128 0c-49-33-70-26-70-26-14 35-6 61-3 68a99 99 0 00-26 69 186 186 0 008 54c18 53 64 67 108 72-7 7-14 18-16 34-15 7-52 18-74-21 0 0-14-24-40-26 0 0-25-1-1 15 0 0 16 8 28 38 0 0 15 45 86 30l1 48c0 6-5 14-18 12A256 256 0 015 307l-1-4a246 246 0 01-4-47 256 256 0 01512 0z"/><path d="M95 364h-5c0 2 1 4 3 4h4c1-2 0-3-2-4zM107 374c-2-2-4-3-6-1-1 1-1 3 1 5s4 2 5 1c2-1 1-3 0-5zM117 388c-1-3-4-4-5-2-2 1-2 3 0 6 1 2 4 3 5 2 2-1 2-4 0-6zM130 402c-2-3-5-3-7-1-1 1-1 4 2 6 2 2 5 3 6 1 2-1 1-4-1-6zM146 411c-3-1-6 0-6 2-1 2 1 5 4 5 3 1 6 0 6-2 1-2-1-4-4-5zM166 414c-3 0-6 2-6 4s3 4 6 4 5-2 5-4-2-4-5-4zM191 415c-1-2-3-4-6-3-3 0-5 2-5 5 0 2 3 3 6 2 3 0 5-2 5-4z"/></g></svg>