<svg height="512" viewBox="0 0 497 497" width="512" xmlns="http://www.w3.org/2000/svg"><path d="M427 283s-67 74-67 112 30 78 67 78c29 0 70-5 70-45 0-44-26-69-70-145M70 283C26 359 0 384 0 428c0 40 41 45 70 45 37 0 67-41 67-78S70 283 70 283" fill="#7e8b96"/><path d="M427 367s-39 15-39 67c0 24 15 39 39 39 29 0 70-5 70-45 0-44-70-61-70-61M70 367S0 384 0 428c0 40 41 45 70 45 24 0 39-15 39-39 0-52-39-67-39-67" fill="#a2abb8"/><path d="M70 473c0 8 7 15 15 15h327c8 0 15-7 15-15l-184-10z" fill="#c8d2dc"/><path d="M427 473v-8c0-4-3-7-7-7l-171-15-172 15c-4 0-7 3-7 7v8z" fill="#e9edf1"/><path d="M249 248c-85 0-137-20-137-20s12-70 42-112c18-24 46-46 94-46s77 22 95 46c30 42 42 112 42 112s-52 20-137 20z" fill="#4e5a61"/><path d="M325 228l-86 16-67-16-6-44S112 76 248 76s83 108 83 108z" fill="#bcd1e1"/><path d="M191 135c-28 0-40 7-40 18 0 28 15 45 43 45s42-14 42-42c0-12-18-21-45-21zM306 135c28 0 40 7 40 18 0 28-15 45-43 45s-42-14-42-42c0-12 18-21 45-21z" fill="#f9c8dc"/><path d="M303 205c-30 0-48-16-49-46h-11c-1 30-19 46-49 46-16 0-29-5-38-14-8-9-13-22-13-38 0-9 5-16 14-20 8-4 19-6 34-6 23 0 41 7 48 17l10-1 9 1c7-10 25-17 48-17 15 0 26 2 34 6 9 4 14 11 14 20 0 16-5 29-13 38-9 9-22 14-38 14zm3-63c-24 0-37 8-37 14 0 23 11 34 34 34 30 0 36-20 36-37 0-7-12-11-33-11zm-115 0c-21 0-33 4-33 11 0 17 6 37 36 37 23 0 34-11 34-34 0-6-13-14-37-14z" fill="#7e8b96"/><path d="M249 100c48 0 78 22 96 46 30 42 40 82 40 82C361 114 354 9 249 9S136 114 112 228c0 0 10-40 40-82 18-24 48-46 97-46z" fill="#a2abb8"/><path d="M412 458H85c-8 0-15-7-15-15V243c0-8 7-15 15-15h1l341 213v2c0 8-7 15-15 15z" fill="#c8d2dc"/><path d="M412 228H264c-8 5-16 0-16 0H86v198c0 8 7 15 15 15h326V243c0-9-7-15-15-15z" fill="#e9edf1"/><path d="M248 228l-35 108a8 8 0 007 10h39l-25 79a7 7 0 0014 4l29-88a8 8 0 00-8-10h-38l33-103z" fill="#bcd1e1"/></svg>